<svg width="16" height="12" viewBox="0 0 16 12" fill="none" xmlns="http://www.w3.org/2000/svg">
<path d="M14.2444 0.315414L5.44157 9.42043L1.76681 5.61951C1.57272 5.41875 1.30947 5.30597 1.03497 5.30597C0.760482 5.30597 0.497232 5.41875 0.303137 5.61951C0.109042 5.82027 0 6.09256 0 6.37647C0 6.51705 0.0267706 6.65626 0.0787829 6.78614C0.130795 6.91602 0.207031 7.03403 0.303137 7.13344L4.70454 11.6859C5.10938 12.1047 5.76337 12.1047 6.16821 11.6859L15.6977 1.82934C15.7944 1.72889 15.8709 1.6096 15.9228 1.47836C15.9747 1.34712 16.0009 1.20655 16 1.06477C15.999 0.922984 15.9709 0.782805 15.9172 0.652339C15.8635 0.521872 15.7854 0.403707 15.6873 0.304677C15.3032 -0.103331 14.6492 -0.103331 14.2444 0.315414Z" fill="#5CB600"/>
</svg>
