<?xml version="1.0" standalone="no"?>
<!DOCTYPE svg PUBLIC "-//W3C//DTD SVG 1.1//EN" "http://www.w3.org/Graphics/SVG/1.1/DTD/svg11.dtd" >
<svg xmlns="http://www.w3.org/2000/svg">
<metadata>Generated by IcoMoon</metadata>
<defs>
<font id="icomoon" horiz-adv-x="1024">
<font-face units-per-em="1024" ascent="960" descent="-64" />
<missing-glyph horiz-adv-x="1024" />
<glyph unicode="&#x20;" horiz-adv-x="512" d="" />
<glyph unicode="&#xe900;" glyph-name="icon-arrow-down" d="M540.099 183.153l472.32 473.629c15.466 15.519 15.441 40.643-0.079 56.134-15.519 15.48-40.657 15.44-56.134-0.080l-444.207-445.438-444.207 445.454c-15.48 15.518-40.602 15.558-56.122 0.080-7.78-7.766-11.67-17.94-11.67-28.114 0-10.148 3.864-20.282 11.59-28.033l472.309-473.632c7.436-7.474 17.555-11.668 28.1-11.668 10.543 0 20.652 4.206 28.101 11.668z" />
<glyph unicode="&#xe901;" glyph-name="icon-arrows-top-down" d="M394.928 195.343c20.691 23.647 3.899 60.657-27.522 60.657h-286.811c-31.42 0-48.213-37.010-27.523-60.657l143.405-163.891c14.571-16.647 40.475-16.647 55.046 0zM219.429 960c-20.198 0-36.571-16.374-36.571-36.571v0-768c0-20.198 16.374-36.571 36.571-36.571v0c20.198 0 36.571 16.374 36.571 36.571v0 768c0 20.198-16.374 36.571-36.571 36.571v0zM804.571 850.286c-20.198 0-36.571-16.374-36.571-36.571v0-768c0-20.198 16.374-36.571 36.571-36.571v0c20.198 0 36.571 16.374 36.571 36.571v0 768c0 20.198-16.374 36.571-36.571 36.571v0zM629.523 782.433c-20.691-23.647-3.899-60.657 27.522-60.657h286.811c31.42 0 48.213 37.010 27.523 60.657l-143.405 163.891c-14.571 16.647-40.475 16.647-55.046 0z" />
<glyph unicode="&#xe902;" glyph-name="icon-arrow-up" d="M483.9 711.928l-472.32-471.988c-15.465-15.465-15.44-40.502 0.080-55.94 15.518-15.426 40.655-15.386 56.134 0.080l444.208 443.895 444.208-443.911c15.479-15.463 40.601-15.505 56.122-0.080 7.779 7.739 11.67 17.877 11.67 28.017 0 10.112-3.864 20.212-11.591 27.936l-472.309 471.992c-7.435 7.449-17.556 11.628-28.1 11.628s-20.652-4.192-28.101-11.628z" />
<glyph unicode="&#xe903;" glyph-name="icon-close" d="M126.538 945.951l-126.538-126.364 385.723-385.549-357.623-357.623 126.364-126.364 357.623 357.623 357.448-357.623 126.364 126.364-357.448 357.623 385.549 385.549-126.364 126.364-385.549-385.549-385.549 385.549z" />
<glyph unicode="&#xe904;" glyph-name="icon-facebook" d="M1019.584 787.359c0 44.267-16.922 83.369-50.761 117.307s-72.828 50.907-116.962 50.907h-679.726c-44.138 0-83.127-16.969-116.966-50.907s-50.759-73.040-50.759-117.307v-681.708c0-44.267 16.92-83.371 50.759-117.308s72.828-50.906 116.966-50.906h339.86v385.118h-123.584v168.218h123.584v66.398c0 57.547 18.761 108.085 56.277 151.614s82.022 65.294 133.517 65.294h136.828v-168.214h-136.828c-7.356 0-14.345-4.427-20.966-13.28-6.618-8.853-9.929-19.92-9.929-33.2v-68.612h167.723v-168.218h-167.723v-385.118h180.966c44.134 0 83.123 16.969 116.962 50.906s50.761 73.041 50.761 117.308v681.708z" />
<glyph unicode="&#xe905;" glyph-name="icon-filter" d="M831.352 402.689c106.251 0 192.627-85.262 192.627-190.144 0-104.826-86.375-190.144-192.627-190.144s-192.629 85.318-192.629 190.144c0 104.883 86.377 190.144 192.629 190.144zM831.352 313.503c-56.442 0-102.279-45.247-102.279-100.958 0-55.655 45.837-100.96 102.279-100.96s102.279 45.305 102.279 100.96c0 55.711-45.837 100.958-102.279 100.958zM415.598 257.154c24.937 0 45.176-19.978 45.176-44.593s-20.239-44.593-45.176-44.593h-370.38c-24.937 0-45.176 19.978-45.176 44.593s20.239 44.593 45.176 44.593h370.38zM192.629 873.599c106.253 0 192.63-85.322 192.63-190.144s-86.376-190.144-192.63-190.144c-106.193 0-192.629 85.322-192.629 190.144s86.436 190.144 192.629 190.144zM192.629 784.413c-56.38 0-102.277-45.306-102.277-100.958s45.898-100.958 102.277-100.958c56.44 0 102.278 45.306 102.278 100.958s-45.838 100.958-102.278 100.958zM978.823 728.036c24.941 0 45.177-19.978 45.177-44.593s-20.237-44.593-45.177-44.593h-370.439c-24.936 0-45.175 19.978-45.175 44.593s20.239 44.593 45.175 44.593h370.439z" />
<glyph unicode="&#xe906;" glyph-name="icon-local" d="M513.507 951.997l13.358-0.236c239.56-7.609 430.946-197.932 430.132-430.817l-0.008-5.158c-2.73-138.916-74.926-275.699-194.718-397.775-59.094-59.254-125.086-111.718-196.66-156.34l0.522 0.372-2.523-2.054c-28.611-19.796-66.526-21.206-96.467-4.242l-6.76 4.242-3.159 2.38-21.644 14.034c-89.898 59.658-169.962 132.048-237.334 214.512l-16.577 20.825c-70.583 89.053-110.657 197.143-114.668 310.533l0.242 14.359c7.877 231.336 204.969 416.15 446.264 415.364zM513.238 875.517l-12.575-0.163c-196.225-5.76-353.793-160.852-354.466-351.749l0.999-17.994c6.802-89.738 40.592-175.76 97.614-247.707 70.792-91.29 157.666-169.836 256.649-232.054l4.304-3.132c3.578-2.986 8.887-2.986 12.465 0l4.429 3.21c66.445 41.422 127.708 90.122 182.348 144.912 107.158 109.204 170.5 229.207 172.795 345.672l-0.17 16.708c-5.962 189.488-166.574 341.648-364.39 342.299zM511.996 679.775c93.628 0 169.528-73.294 169.528-163.707s-75.9-163.707-169.528-163.707c-93.628 0-169.528 73.295-169.528 163.707s75.9 163.707 169.528 163.707zM511.996 603.297c-49.888 0-90.331-39.054-90.331-87.23s40.442-87.229 90.331-87.229c49.888 0 90.331 39.054 90.331 87.229s-40.442 87.23-90.331 87.23z" />
<glyph unicode="&#xe907;" glyph-name="icon-star" d="M456.161 880.608c27.189 38.658 84.488 38.658 111.677 0l138.1-196.355c8.711-12.379 21.279-21.514 35.744-25.969l229.424-70.666c45.165-13.912 62.874-68.407 34.509-106.211l-144.070-192.020c-9.079-12.107-13.885-26.887-13.653-42.022l3.686-240.026c0.73-47.254-45.629-80.937-90.344-65.645l-227.144 77.681c-14.32 4.902-29.861 4.902-44.181 0l-227.142-77.681c-44.719-15.292-91.075 18.391-90.349 65.645l3.688 240.032c0.232 15.128-4.57 29.908-13.653 42.015l-144.069 192.020c-28.364 37.805-10.658 92.299 34.51 106.211l229.421 70.666c14.464 4.455 27.036 13.59 35.743 25.969l138.102 196.355z" />
<glyph unicode="&#xe908;" glyph-name="icon-stat-arrow-down" d="M377.263 205.474h-377.263l188.632-215.579 188.632 215.579zM134.737 906.105h107.789v-754.526h-107.789v754.526zM485.053 906.105h215.579v-107.789h-215.579v107.789zM485.053 636.632h323.368v-107.789h-323.368v107.789zM485.053 367.158h431.158v-107.789h-431.158v107.789zM485.053 97.684h538.947v-107.789h-538.947v107.789z" />
<glyph unicode="&#xe909;" glyph-name="icon-telegram" d="M509.611 959.999c-135.376-0.632-264.992-54.853-360.495-150.804s-149.117-225.818-149.116-361.195c0-135.791 53.943-266.022 149.961-362.039 96.019-96.021 226.248-149.961 362.039-149.961s266.018 53.939 362.039 149.961c96.017 96.017 149.961 226.249 149.961 362.039s-53.943 266.019-149.961 362.037c-96.021 96.019-226.249 149.961-362.039 149.961-0.798 0.002-1.591 0.002-2.389 0v0zM721.323 651.775c4.267 0.085 13.696-0.981 19.84-5.973 4.083-3.546 6.686-8.494 7.296-13.867 0.683-3.968 1.536-13.056 0.853-20.139-7.68-80.98-41.045-277.417-58.027-368.084-7.168-38.4-21.291-51.243-34.987-52.48-29.696-2.773-52.267 19.627-81.067 38.485-45.056 29.568-70.528 47.957-114.261 76.8-50.56 33.28-17.792 51.627 11.008 81.493 7.552 7.851 138.539 127.019 141.099 137.813 0.299 1.365 0.597 6.4-2.389 9.044s-7.424 1.749-10.624 1.024c-4.523-1.024-76.501-48.639-215.936-142.719-20.48-14.080-38.955-20.907-55.552-20.48-18.261 0.341-53.419 10.283-79.573 18.773-32.085 10.453-57.557 15.957-55.339 33.664 1.152 9.216 13.867 18.645 38.101 28.288 149.248 65.024 248.747 107.903 298.581 128.596 142.165 59.136 171.733 69.419 190.976 69.76v0z" />
<glyph unicode="&#xe90a;" glyph-name="icon-twitter" d="M853.333 638.667c-24.887-11.111-51.776-18.667-80.666-22.667 30.221 17.778 50.889 43.778 61.999 78-28.89-16.889-58.667-28.222-89.331-34-27.115 29.333-61.111 44-102.003 44-38.665 0-71.667-13.667-98.999-41s-40.998-60.333-40.998-99c0-12.889 1.109-23.555 3.332-31.998-57.335 3.109-111.111 17.553-161.333 43.331s-92.889 60.222-128 103.333c-12.889-22.222-19.334-45.778-19.334-70.667 0-50.667 20.222-89.557 60.667-116.668-20.889 0.444-43.111 6.225-66.667 17.335v-1.335c0-33.331 11.111-62.997 33.333-88.998s49.556-42.112 82-48.333c-12.889-3.558-24.222-5.333-34-5.333-5.778 0-14.444 0.887-26 2.667 9.333-28.002 25.889-51.11 49.667-69.333s50.778-27.558 81-28.002c-51.556-40-109.556-59.998-174-59.998-11.555 0-22.667 0.666-33.333 2.001 65.778-41.779 137.333-62.669 214.667-62.669 49.777 0 96.446 7.889 140 23.667s80.887 36.89 112 63.334c31.113 26.445 57.89 56.887 80.333 91.332 22.447 34.445 39.113 70.443 50.001 107.998s16.333 75.004 16.333 112.335c0 8-0.222 14-0.666 18 27.998 20 51.332 44.222 69.999 72.667zM1024 768v-640c0-52.89-18.778-98.112-56.333-135.667s-82.778-56.333-135.667-56.333h-640c-52.889 0-98.111 18.778-135.667 56.333s-56.333 82.778-56.333 135.667v640c0 52.889 18.778 98.111 56.333 135.667s82.778 56.333 135.667 56.333h640c52.89 0 98.112-18.778 135.667-56.333s56.333-82.778 56.333-135.667z" />
<glyph unicode="&#xe90b;" glyph-name="icon-user" d="M397.184 303.57c76.394 6.521 153.23 6.521 229.623 0l24.392-1.997c33.363-3.182 66.49-8.165 99.089-14.899 83.091-16.563 143.432-45.945 170.134-100.447 19.842-40.544 19.842-87.624-0.008-128.191-26.774-54.634-87.889-84.267-169.507-99.848l-24.728-4.962c-33.052-6.144-66.381-10.327-99.488-12.524-62.125-5.112-124.539-6.049-184.745-2.844-6.637 0-11.091 0.024-15.016 0.11l-7.634 0.276c-9.28 0.457-17.782 1.402-21.35 2.41-41.886 2.757-83.495 8.625-123.41 17.337l-13.54 2.733c-75.583 16.25-131.557 45.568-157.449 97.375-9.806 20.102-14.878 42.071-14.848 64.126-0.085 22.221 5.028 44.166 15.199 64.66 26.965 52.408 90.319 83.944 169.509 99.727 41.029 8.509 82.625 14.193 123.776 16.957zM620.133 229.734c-71.953 6.142-144.322 6.142-216.976-0.054-38.272-2.577-76.311-7.775-114.126-15.615-58.567-11.674-103.346-33.965-116.666-59.843-4.906-9.893-7.432-20.732-7.39-31.902-0.014-11.232 2.546-22.323 7.34-32.154 13.7-27.412 55.954-47.9 117.864-59.636l18.653-3.82c31.24-5.994 63.414-10.122 99.17-12.737 4.516-0.874 9.389-1.418 15.17-1.701l20.827-0.347c58.743-3.072 117.634-2.198 176.876 2.678 38.181 2.536 76.112 7.861 114.395 16.132l11.904 2.434c54.37 11.934 91.987 31.453 104.368 56.722 9.986 20.401 9.986 44.095 0.009 64.488-13.251 27.040-55.135 47.436-116.854 59.739-37.545 7.756-75.601 12.956-113.891 15.564l-0.671 0.051zM512.229 960c155.247 0 281.101-122.299 281.101-273.161s-125.854-273.161-281.101-273.161c-155.248 0-281.101 122.299-281.101 273.161s125.853 273.161 281.101 273.161zM512.229 885.879c-113.122 0-204.826-89.114-204.826-199.040s91.704-199.040 204.826-199.040c113.122 0 204.825 89.113 204.825 199.040s-91.703 199.040-204.825 199.040z" />
<glyph unicode="&#xe90c;" glyph-name="icon-vk" d="M1023.999 49.776v796.446c0 62.578-51.372 113.778-114.064 113.778h-795.872c-65.422 0-114.062-48.526-114.062-113.778v-796.446c0-65.308 48.64-113.776 114.062-113.776h795.872c30.189 0.047 59.131 12.037 80.505 33.359 21.374 21.318 33.438 50.232 33.559 80.417zM806.911 356.58c0 0 64.4-63.544 80.272-93.012 0.451-0.628 0.624-1.196 0.796-1.424 6.428-10.808 8.076-19.344 4.836-25.6-5.348-10.412-23.552-15.644-29.757-16.1h-113.72c-7.964 0-24.46 2.048-44.488 15.872-15.36 10.696-30.548 28.388-45.34 45.624-22.072 25.6-41.188 47.788-60.416 47.788-2.439 0.005-4.859-0.4-7.168-1.196-14.62-4.664-33.164-25.428-33.164-80.896 0-17.347-13.656-27.248-23.324-27.248h-52.112c-17.748 0-110.194 6.2-192.057 92.616-100.466 105.812-190.692 318.064-191.488 319.941-5.689 13.71 6.087 21.163 18.887 21.163h114.915c15.417 0 20.366-9.33 23.894-17.692 3.982-9.5 19.001-47.844 43.577-90.965 39.993-70.143 64.626-98.703 84.252-98.703 3.67 0.023 7.274 0.982 10.468 2.788 25.657 14.164 20.878 105.643 19.74 124.53 0 3.584-0.057 40.903-13.141 58.823-9.444 12.971-25.43 17.92-35.1 19.798 3.943 5.434 9.133 9.843 15.132 12.857 17.578 8.761 49.266 10.012 80.782 10.012h17.523c34.188-0.455 43.064-2.674 55.408-5.803 24.976-5.973 25.488-22.186 23.268-77.369-0.624-15.701-1.308-33.508-1.308-54.386 0-4.494-0.172-9.444-0.172-14.564-0.796-28.217-1.704-60.131 18.204-73.215 2.579-1.615 5.553-2.481 8.592-2.504 6.94 0 27.704 0 83.968 96.54 24.748 42.61 43.804 92.9 45.112 96.654 1.987 4.059 4.869 7.618 8.42 10.41 2.914 1.514 6.163 2.276 9.444 2.219h135.112c14.792 0 24.804-2.219 26.68-7.851 3.244-9.045-0.624-36.636-62.352-120.036l-27.476-36.409c-55.98-73.272-55.98-77.028 3.3-132.664v0z" />
<glyph unicode="&#xe90d;" glyph-name="icon-wallet" d="M726.422 934.4c164.342 0 297.578-136.251 297.578-304.319v-364.161c0-168.068-133.236-304.319-297.578-304.319h-428.846c-164.344 0-297.576 136.252-297.576 304.319v364.161c0 168.068 133.232 304.319 297.576 304.319h428.846zM726.422 858.29h-428.846c-123.242 0-223.152-102.176-223.152-228.209v-364.161c0-126.035 99.91-228.209 223.152-228.209h428.846c123.245 0 223.151 102.173 223.151 228.209l-0.023 14.195-163.632-0.042c-94.292 0.059-170.707 78.169-170.766 174.609 0 93.201 71.444 169.32 161.412 174.345l9.376 0.263 163.61 0.008 0.023 0.782c0 122.327-94.122 222.179-212.339 227.946l-10.812 0.263zM949.551 553.216l-163.588-0.035c-53.249-0.033-96.388-44.121-96.388-98.476 0.032-51.82 39.147-94.268 88.83-98.222l7.535-0.301 163.61 0.015v197.017zM808.66 495.863c20.548 0 37.213-17.037 37.213-38.054 0-19.266-14.001-35.188-32.162-37.707l-5.051-0.347h-15.468c-20.548 0-37.206 17.037-37.206 38.054 0 19.266 13.994 35.188 32.162 37.707l5.044 0.347h15.468zM530.119 704.135c20.551 0 37.211-17.038 37.211-38.055 0-19.266-14-35.188-32.162-37.707l-5.049-0.347h-267.871c-20.552 0-37.211 17.037-37.211 38.054 0 19.266 14 35.188 32.162 37.707l5.050 0.348h267.871z" />
<glyph unicode="&#xe90e;" glyph-name="icon-youtube" d="M1001.351 657.628c7.824-57.545 11.739-114.268 11.739-170.168v-78.918l-11.739-170.168c-6.253-47.681-19.556-82.21-39.9-103.583-21.9-23.017-54.759-37.816-98.575-44.391-42.245-3.287-92.708-5.752-151.382-7.396s-106.788-2.465-144.341-2.465h-56.329c-173.68 1.643-287.119 4.931-340.318 9.861l-18.776 2.465-30.512 4.931-29.337 12.333-30.511 24.66-23.471 40.695-12.908 45.625-4.695 17.263c-6.259 57.545-9.388 114.268-9.388 170.168v78.918l9.388 170.168c6.259 47.68 19.559 82.206 39.899 103.58 21.905 24.662 55.546 39.46 100.921 44.393 42.246 3.288 92.316 5.754 150.21 7.398s105.616 2.465 143.168 2.465h56.329c140.818 0 258.173-3.288 352.051-9.865 43.815-4.933 76.673-19.729 98.575-44.393 6.261-6.577 11.739-14.386 16.429-23.429 4.697-9.042 8.605-18.085 11.739-27.128 3.127-9.042 5.479-17.675 7.043-25.895s3.127-14.798 4.691-19.729v-7.398zM646.955 440.601l32.858 17.263-269.908 147.972v-295.945l237.050 130.709z" />
<glyph unicode="&#xe90f;" glyph-name="icon-arrow-left" d="M250.19 476.1l468.197 472.321c15.34 15.466 40.176 15.44 55.49-0.080 15.303-15.518 15.263-40.656-0.080-56.134l-440.328-444.208 440.344-444.202c15.34-15.481 15.38-40.601 0.080-56.13-7.677-7.778-17.734-11.667-27.791-11.667-10.032 0-20.048 3.861-27.712 11.593l-468.198 472.307c-7.388 7.437-11.534 17.556-11.534 28.1s4.157 20.651 11.534 28.101z" />
<glyph unicode="&#xe910;" glyph-name="icon-arrow-right" d="M773.81 476.1l-468.197 472.321c-15.34 15.466-40.176 15.44-55.49-0.080-15.302-15.518-15.263-40.656 0.080-56.134l440.328-444.208-440.344-444.202c-15.34-15.481-15.38-40.601-0.080-56.13 7.677-7.778 17.734-11.667 27.791-11.667 10.032 0 20.049 3.861 27.712 11.593l468.198 472.307c7.388 7.437 11.534 17.556 11.534 28.1s-4.158 20.651-11.534 28.101z" />
<glyph unicode="&#xe911;" glyph-name="icon-check" d="M911.64 811.814l-563.38-582.72-235.185 243.258c-12.421 12.849-29.269 20.066-46.837 20.066s-34.415-7.218-46.837-20.066-19.401-30.275-19.401-48.445c0-8.997 1.713-17.906 5.042-26.219s8.208-15.865 14.359-22.227l281.689-291.357c25.909-26.803 67.765-26.803 93.675 0l609.886 630.818c6.189 6.429 11.085 14.063 14.407 22.462s4.999 17.395 4.941 26.47c-0.064 9.074-1.862 18.046-5.299 26.395s-8.435 15.913-14.713 22.25c-24.583 26.113-66.439 26.113-92.345-0.687z" />
<glyph unicode="&#xe912;" glyph-name="icon-basket" d="M936.3 793.961c19.917 0 36.5-16.537 36.5-37.58v-19.456c0-20.531-16.584-37.58-36.5-37.58h-848.55c-19.968 0-36.549 17.050-36.549 37.58v19.456c0 21.043 16.582 37.58 36.549 37.58h149.285c30.325 0 56.716 21.555 63.538 51.967l7.818 34.918c12.15 47.564 52.135 79.154 97.896 79.154h211.427c45.266 0 85.699-31.59 97.398-76.646l8.366-37.375c6.774-30.463 33.162-52.019 63.539-52.019h149.284zM860.457 82.74c15.585 145.249 42.875 490.336 42.875 493.817 0.993 10.547-2.442 20.531-9.262 28.57-7.322 7.526-16.584 11.981-26.788 11.981h-710.174c-10.257 0-20.017-4.454-26.789-11.981-6.872-8.038-10.258-18.022-9.76-28.57 0.092-0.639 1.071-12.795 2.707-33.117 7.272-90.277 27.526-341.722 40.614-460.701 9.262-87.654 66.775-142.746 150.081-144.742 64.285-1.485 130.512-1.997 198.233-1.997 63.785 0 128.569 0.512 194.847 1.997 86.195 1.485 143.657 55.603 153.416 144.742z" />
<glyph unicode="&#xe913;" glyph-name="icon-comment" d="M513.023 958.665c290.816 0 510.977-237.817 510.977-509.9 0-315.554-258.049-511.431-512-511.431-83.968 0-177.152 22.5-251.904 66.484-26.112 15.855-48.127 27.618-76.287 18.411l-103.425-30.682c-26.112-8.191-49.664 12.271-41.984 39.89l34.303 114.561c5.633 15.855 4.608 32.732-3.583 46.028-44.032 80.807-69.12 169.285-69.12 255.206 0 269.014 215.552 511.434 513.024 511.434zM747.007 512.183c-36.352 0-65.536-29.152-65.536-65.464 0-35.8 29.184-65.464 65.536-65.464s65.536 29.663 65.536 65.464c0 36.313-29.184 65.464-65.536 65.464zM510.975 512.183c-35.84 0.51-65.536-29.152-65.536-64.953 0-36.312 29.184-65.464 65.536-65.975 36.352 0 65.536 29.663 65.536 65.464 0 36.313-29.184 65.464-65.536 65.464zM274.943 512.183c-36.351 0-65.536-29.152-65.536-65.464 0-35.8 29.696-65.464 65.536-65.464 36.352 0.511 65.536 29.663 65.536 65.464 0 36.313-29.184 65.464-65.536 65.464z" />
<glyph unicode="&#xe914;" glyph-name="icon-eye" d="M512 856.534c105.896 0 206.299-36.644 293.714-104.486 87.415-67.346 161.842-165.889 215.288-289.192 3.998-9.409 3.998-20.303 0-29.216-106.891-246.606-297.208-394.174-509.001-394.174h-0.5c-211.294 0-401.608 147.568-508.503 394.174-3.996 8.914-3.996 19.808 0 29.216 106.895 246.606 297.211 393.678 508.503 393.678h0.5zM512 646.077c-110.393 0-199.806-88.64-199.806-198.077 0-108.943 89.413-197.583 199.806-197.583 109.893 0 199.305 88.64 199.305 197.583 0 109.437-89.413 198.077-199.305 198.077zM512.060 571.907c68.433 0 124.379-55.462 124.379-123.799 0-67.841-55.946-123.303-124.379-123.303-68.932 0-124.878 55.462-124.878 123.303 0 8.419 0.999 16.342 2.497 24.264h2.498c55.446 0 100.402 43.577 102.4 98.049 5.495 0.991 11.49 1.485 17.483 1.485z" />
<glyph unicode="&#xe915;" glyph-name="icon-dislike" d="M731.853 138.978c0-118.076-55.12-202.978-145.389-202.978-47.142 0-64.839 26.207-81.714 86.788l-10.008 37.329c-4.884 17.358-13.394 46.9-25.482 88.528-0.33 1.111-0.818 2.174-1.45 3.146l-138.574 216.902c-32.793 51.307-81.177 90.742-138.043 112.513l-22.871 8.704c-29.203 11.195-53.524 32.326-68.69 59.677s-20.205 59.174-14.231 89.873l19.534 100.909c5.73 29.46 19.775 56.663 40.476 78.392s47.192 37.076 76.341 44.226l368.822 90.416c58.799 14.405 120.905 5.013 172.818-26.135 51.908-31.148 89.42-81.531 104.377-140.192l68.416-268.349c5.912-23.2 6.437-47.443 1.545-70.879-4.886-23.435-15.067-45.444-29.762-64.344-14.694-18.903-33.512-34.196-55.017-44.713-21.505-10.523-45.128-15.99-69.070-15.984h-88.095c23.979-78.958 36.065-139.881 36.065-183.83zM156.478 625.631c-2.702-13.95-0.404-28.407 6.493-40.83s17.951-22.019 31.22-27.104l22.919-8.8c71.348-27.322 132.053-76.807 173.194-141.185l138.623-216.858c4.351-6.767 7.688-14.212 9.912-21.951l26.689-92.834 10.251-38.294c6.769-23.593 10.154-29.249 10.637-29.249 41.969 0 72.865 47.577 72.865 130.45 0 42.789-15.762 112.947-47.577 208.632-1.815 5.447-2.31 11.25-1.444 16.93 0.866 5.674 3.068 11.067 6.425 15.727s7.773 8.459 12.883 11.073c5.11 2.621 10.77 3.988 16.514 3.995h137.802c12.887 0.006 25.603 2.959 37.176 8.627s21.706 13.903 29.615 24.078c7.909 10.175 13.388 22.024 16.026 34.638 2.632 12.616 2.358 25.667-0.818 38.157l-68.416 268.349c-10.237 40.135-35.913 74.604-71.433 95.909s-78.016 27.725-118.246 17.861l-368.822-90.416c-15.699-3.851-29.966-12.118-41.114-23.823s-18.709-26.358-21.791-42.225l-19.582-100.86z" />
<glyph unicode="&#xe916;" glyph-name="icon-like-filled" d="M440.775 938.43c55.459 15.301 98.79-25.697 114.244-63.841 17.746-43.927 33.496-74.676 52.205-111.575 11.535-22.696 24.253-47.881 39.412-79.801 35.123-73.871 70.1-121.239 95.61-149.645 9.271-10.519 19.278-20.378 29.948-29.505 2.423-2.034 4.914-3.987 7.468-5.856l1.184-0.879 138.423-80.899c29.967-17.503 52.741-44.907 64.318-77.39 11.577-32.489 11.215-67.975-1.022-100.22l-38.451-101.326c-7.905-20.806-20.488-39.55-36.798-54.823s-35.916-26.672-57.334-33.327l-396.045-123.213c-23.438-7.292-48.113-9.883-72.58-7.619-24.46 2.259-48.221 9.324-69.894 20.782s-40.821 27.081-56.326 45.95c-15.505 18.875-27.058 40.614-33.975 63.957l-100.862 340.141c-6.484 21.84-7.731 44.878-3.655 67.281 4.082 22.402 13.383 43.555 27.165 61.777s31.663 33.012 52.226 43.194c20.568 10.182 43.246 15.477 66.239 15.464h102.336c-4.88 16.545-9.835 34.996-14.417 54.177-9.687 41.071-17.971 88.074-17.157 127.168 0.665 36.46 4.44 74.676 19.522 107.036 16.194 34.849 44.517 60.985 88.145 72.992h0.071z" />
<glyph unicode="&#xe917;" glyph-name="icon-quotes" d="M179.337-64c-46.936 83.712-78.786 171.553-95.549 263.517-16.763 93.142-18.439 185.111-5.029 275.894 13.41 90.789 41.349 177.448 83.815 259.981 42.466 83.712 98.902 158.581 169.306 224.608l90.52-60.131c16.763-11.79 24.027-26.529 21.792-44.214-1.118-16.506-6.147-29.476-15.087-38.908-29.056-37.729-54.2-83.712-75.433-137.948-20.116-54.236-32.967-112.599-38.555-175.088-5.588-61.309-2.794-124.979 8.381-191.003 11.175-66.029 34.085-129.699 68.728-191.009 14.528-24.758 18.439-47.16 11.734-67.202-5.587-18.865-18.998-33.015-40.231-42.449l-184.393-76.046zM688.934-64c-46.936 83.712-78.787 171.553-95.549 263.517-16.766 93.142-18.441 185.111-5.032 275.894 13.41 90.789 41.351 177.448 83.814 259.981 42.468 83.712 98.904 158.581 169.309 224.608l90.517-60.131c16.766-11.79 24.027-26.529 21.793-44.214-1.117-16.506-6.144-29.476-15.085-38.908-29.058-37.729-54.202-83.712-75.432-137.948-20.117-54.236-32.968-112.599-38.558-175.088-5.585-61.309-2.793-124.979 8.383-191.003 11.176-66.029 34.085-129.699 68.729-191.009 14.527-24.758 18.437-47.16 11.734-67.202-5.59-18.865-19-33.015-40.234-42.449l-184.39-76.046z" />
<glyph unicode="&#xe918;" glyph-name="icon-like" d="M292.147 757.022c0 118.076 55.12 202.978 145.389 202.978 47.142 0 64.839-26.207 81.714-86.788l10.008-37.329c4.884-17.358 13.394-46.9 25.482-88.528 0.33-1.111 0.818-2.174 1.45-3.146l138.574-216.902c32.793-51.307 81.177-90.742 138.043-112.513l22.871-8.704c29.203-11.195 53.524-32.326 68.69-59.677s20.205-59.174 14.231-89.873l-19.534-100.909c-5.73-29.46-19.775-56.663-40.476-78.392s-47.192-37.076-76.341-44.226l-368.822-90.416c-58.799-14.405-120.905-5.013-172.818 26.135-51.908 31.148-89.42 81.531-104.377 140.192l-68.416 268.349c-5.912 23.2-6.437 47.443-1.545 70.879 4.886 23.435 15.067 45.444 29.762 64.344 14.694 18.903 33.512 34.196 55.017 44.713 21.505 10.523 45.128 15.99 69.070 15.984h88.095c-23.979 78.958-36.065 139.881-36.065 183.83zM867.522 270.369c2.702 13.95 0.404 28.407-6.493 40.83s-17.951 22.019-31.22 27.104l-22.919 8.8c-71.348 27.322-132.053 76.807-173.194 141.185l-138.623 216.858c-4.351 6.767-7.688 14.212-9.912 21.951l-26.689 92.834-10.251 38.294c-6.769 23.593-10.154 29.249-10.637 29.249-41.969 0-72.865-47.577-72.865-130.45 0-42.789 15.762-112.947 47.577-208.632 1.815-5.447 2.31-11.25 1.444-16.93-0.866-5.674-3.068-11.067-6.425-15.727s-7.773-8.459-12.883-11.073c-5.11-2.621-10.77-3.988-16.514-3.995h-137.802c-12.887-0.006-25.603-2.959-37.176-8.627s-21.706-13.903-29.615-24.078c-7.909-10.175-13.388-22.024-16.026-34.638-2.632-12.616-2.358-25.667 0.818-38.157l68.416-268.349c10.237-40.135 35.913-74.604 71.433-95.909s78.016-27.725 118.246-17.861l368.822 90.416c15.699 3.851 29.966 12.118 41.114 23.823s18.709 26.358 21.791 42.225l19.582 100.86z" />
<glyph unicode="&#xe919;" glyph-name="icon-dislike-filled" horiz-adv-x="910" d="M580.181-21.471c-53.089-14.647-94.568 24.599-109.362 61.113-16.988 42.050-32.065 71.485-49.974 106.807-11.042 21.726-23.217 45.835-37.728 76.391-33.622 70.714-67.104 116.058-91.524 143.25-8.875 10.069-18.454 19.507-28.668 28.244-2.319 1.947-4.704 3.817-7.149 5.606l-1.133 0.841-132.508 77.442c-28.686 16.755-50.487 42.988-61.569 74.083-11.082 31.101-10.736 65.070 0.978 95.937l36.808 96.996c7.567 19.917 19.612 37.86 35.225 52.48s34.381 25.532 54.884 31.903l379.12 117.948c22.436 6.98 46.057 9.461 69.478 7.293 23.415-2.162 46.16-8.926 66.907-19.894s39.077-25.924 53.919-43.986c14.842-18.068 25.902-38.878 32.523-61.224l96.552-325.605c6.207-20.907 7.401-42.96 3.499-64.406-3.908-21.445-12.811-41.694-26.004-59.137s-30.31-31.601-49.994-41.348c-19.689-9.747-41.398-14.816-63.408-14.803h-97.963c4.671-15.838 9.415-33.5 13.801-51.862 9.273-39.316 17.203-84.31 16.424-121.734-0.637-34.902-4.25-71.485-18.688-102.462-15.502-33.36-42.615-58.379-84.378-69.873h-0.068z" />
<glyph unicode="&#xe91a;" glyph-name="icon-clock" d="M512 960c283.136 0 512-229.376 512-512 0-283.136-228.864-512-512-512-282.624 0-512 228.864-512 512 0 282.624 229.376 512 512 512zM494.080 707.584c-20.992 0-38.4-16.896-38.4-38.4v-258.56c0-13.312 7.168-25.6 18.944-32.768l200.704-119.808c6.144-3.584 12.8-5.632 19.968-5.632 12.8 0 25.6 6.656 32.768 18.944 10.752 17.92 5.12 41.472-13.312 52.736l-182.272 108.544v236.544c0 21.504-17.408 38.4-38.4 38.4z" />
</font>
</defs>
</svg>
